<svg width="48" height="59" viewBox="0 0 48 59" fill="none" xmlns="http://www.w3.org/2000/svg">
<path d="M7.79047 53.56C6.59047 53.56 5.45714 53.2933 4.39047 52.76C3.3238 52.2267 2.45714 51.4933 1.79047 50.56C1.15047 49.6267 0.830469 48.5733 0.830469 47.4L1.31047 47.16C2.5638 48.0933 3.81714 48.56 5.07047 48.56C5.79047 48.56 6.47047 48.36 7.11047 47.96C7.75047 47.56 8.31047 46.8533 8.79047 45.84C9.29714 44.8267 9.6838 43.4267 9.95047 41.64C10.2438 39.8533 10.3905 37.56 10.3905 34.76C10.3905 32.3867 10.5371 30.4133 10.8305 28.84C11.1505 27.2667 11.7905 25.8267 12.7505 24.52C12.4038 24.28 11.9905 24.0667 11.5105 23.88C11.0571 23.6667 10.5771 23.56 10.0705 23.56C9.21714 23.56 8.51047 23.88 7.95047 24.52C7.41714 25.1333 7.15047 25.92 7.15047 26.88C7.15047 27.3867 7.23047 27.92 7.39047 28.48C7.57714 29.04 7.85714 29.6 8.23047 30.16C6.63047 30.16 5.29714 29.88 4.23047 29.32C3.19047 28.7333 2.4038 28 1.87047 27.12C1.3638 26.24 1.11047 25.32 1.11047 24.36C1.11047 23.4 1.33714 22.4933 1.79047 21.64C2.27047 20.7867 2.97714 20.0933 3.91047 19.56C4.8438 19 5.97714 18.72 7.31047 18.72C8.35047 18.72 9.51047 18.9333 10.7905 19.36C12.0705 19.76 13.4705 20.44 14.9905 21.4C15.9238 20.3067 16.7638 19.6267 17.5105 19.36C18.2571 19.0933 18.8438 18.96 19.2705 18.96C20.3638 18.96 21.1638 19.3333 21.6705 20.08C22.1771 20.8 22.4305 21.6667 22.4305 22.68C22.4305 23.3467 22.2971 24 22.0305 24.64C21.7905 25.28 21.4038 25.8133 20.8705 26.24C20.3371 26.64 19.6438 26.84 18.7905 26.84C18.5238 26.84 18.2305 26.8133 17.9105 26.76C17.6171 26.7067 17.2838 26.6133 16.9105 26.48C16.7238 26.96 16.5905 27.52 16.5105 28.16C16.4305 28.8 16.3905 29.4933 16.3905 30.24C16.3905 31.7067 16.4705 33.28 16.6305 34.96C16.7905 36.6133 16.8705 38.24 16.8705 39.84C16.8705 42.3467 16.6038 44.48 16.0705 46.24C15.5371 47.9733 14.8305 49.3733 13.9505 50.44C13.0705 51.5333 12.0971 52.32 11.0305 52.8C9.9638 53.3067 8.8838 53.56 7.79047 53.56ZM41.327 48.28C40.3937 48.28 39.5804 48.0533 38.887 47.6C38.2204 47.12 37.6337 46.5067 37.127 45.76C36.647 45.0133 36.2204 44.2 35.847 43.32C35.5004 42.4133 35.167 41.5467 34.847 40.72C34.367 39.3867 33.927 38.2267 33.527 37.24C33.127 36.2267 32.687 35.3733 32.207 34.68C31.7004 36.7067 31.287 38.6533 30.967 40.52C30.6737 42.3867 30.487 44.4667 30.407 46.76C29.927 47.2133 29.3804 47.56 28.767 47.8C28.1804 48.04 27.5804 48.16 26.967 48.16C26.0337 48.16 25.207 47.84 24.487 47.2C23.767 46.5333 23.407 45.4267 23.407 43.88C23.407 42.8133 23.567 41.6133 23.887 40.28C24.207 38.9467 24.5937 37.5733 25.047 36.16C25.527 34.7467 26.007 33.3733 26.487 32.04C26.967 30.7067 27.367 29.5067 27.687 28.44C28.007 27.3467 28.167 26.48 28.167 25.84C28.167 25.1733 27.9404 24.84 27.487 24.84C26.9804 24.84 26.367 25.2267 25.647 26C24.927 26.7467 24.1937 27.8 23.447 29.16L23.207 29.08C23.207 27.48 23.5537 26.0533 24.247 24.8C24.9404 23.5467 25.8737 22.4933 27.047 21.64C28.247 20.76 29.6204 20.0933 31.167 19.64C32.7404 19.1867 34.3804 18.96 36.087 18.96C38.3537 18.96 40.1937 19.32 41.607 20.04C43.0204 20.7333 44.0604 21.64 44.727 22.76C45.4204 23.8533 45.767 25.0267 45.767 26.28C45.767 27.56 45.4337 28.8133 44.767 30.04C44.127 31.2667 43.207 32.2933 42.007 33.12C40.8337 33.92 39.4337 34.3867 37.807 34.52C38.367 34.9467 38.847 35.4933 39.247 36.16C39.647 36.8 40.0604 37.5333 40.487 38.36C40.8604 39.1067 41.3004 39.8267 41.807 40.52C42.3137 41.1867 43.007 41.52 43.887 41.52C44.3404 41.52 44.7137 41.4133 45.007 41.2C45.3004 40.96 45.5537 40.5733 45.767 40.04L46.007 40.16C46.1404 40.56 46.2204 40.9467 46.247 41.32C46.3004 41.6933 46.327 42.04 46.327 42.36C46.327 44.04 45.8604 45.4533 44.927 46.6C43.9937 47.72 42.7937 48.28 41.327 48.28ZM34.207 31C35.167 31 35.9937 30.7867 36.687 30.36C37.407 29.9067 37.9537 29.36 38.327 28.72C38.727 28.0533 38.927 27.3867 38.927 26.72C38.927 25.8933 38.607 25.1733 37.967 24.56C37.3537 23.92 36.3404 23.6 34.927 23.6C34.7137 23.6 34.487 23.6133 34.247 23.64C34.0337 23.64 33.8204 23.6533 33.607 23.68C33.6337 23.8667 33.647 24.0533 33.647 24.24C33.647 24.4 33.647 24.48 33.647 24.48C33.647 25.7067 33.5937 26.8933 33.487 28.04C33.407 29.1867 33.287 30.1467 33.127 30.92C33.3137 30.9467 33.487 30.9733 33.647 31C33.8337 31 34.0204 31 34.207 31Z" fill="#FF75C3"/>
<path d="M13.3746 8.04141C13.7612 6.99667 15.2388 6.99667 15.6254 8.04141L16.3342 9.95683C16.4557 10.2853 16.7147 10.5443 17.0432 10.6658L18.9586 11.3746C20.0033 11.7612 20.0033 13.2388 18.9586 13.6254L17.0432 14.3342C16.7147 14.4557 16.4557 14.7147 16.3342 15.0432L15.6254 16.9586C15.2388 18.0033 13.7612 18.0033 13.3746 16.9586L12.6658 15.0432C12.5443 14.7147 12.2853 14.4557 11.9568 14.3342L10.0414 13.6254C8.99667 13.2388 8.99667 11.7612 10.0414 11.3746L11.9568 10.6658C12.2853 10.5443 12.5443 10.2853 12.6658 9.95683L13.3746 8.04141Z" fill="#FF75C3"/>
</svg>